<svg xmlns="http://www.w3.org/2000/svg" width="26" height="26" viewBox="0 0 26 26">
  <path fill="#F64D0A" d="M12.0714286,0 C16.3841347,0 20.3692395,2.30080121 22.5255925,6.03571423 C24.6819456,9.77062726 24.6819456,14.3722299 22.5255925,18.1071429 C20.3692395,21.8420559 16.3841347,24.1428571 12.0714286,24.1428571 C5.40456273,24.1428571 1.79878303e-07,18.7382944 1.79878303e-07,12.0714286 C1.79878303e-07,5.40456273 5.40456273,0 12.0714286,0 Z M12.0714286,2.01190476 C6.51570698,2.01190476 2.01190476,6.51570698 2.01190476,12.0714286 C2.01190476,17.6271502 6.51570698,22.1309524 12.0714286,22.1309524 C17.6271502,22.1309524 22.1309524,17.6271502 22.1309524,12.0714286 C22.1309524,6.51570698 17.6271502,2.01190476 12.0714286,2.01190476 L12.0714286,2.01190476 Z M12.0714286,16.0952381 C12.9047868,16.0952381 13.5803571,16.7708084 13.5803571,17.6041667 C13.5803571,18.4375249 12.9047868,19.1130952 12.0714286,19.1130952 C11.2380703,19.1130952 10.5625,18.4375249 10.5625,17.6041667 C10.5625,16.7708084 11.2380703,16.0952381 12.0714286,16.0952381 Z M12.0714286,5.02976185 C12.5572881,5.02959993 12.973831,5.37671903 13.0612857,5.85464286 L13.0773827,6.03571429 L13.0773827,13.077381 C13.0783402,13.5984423 12.6812537,14.0339901 12.1623228,14.0810705 C11.6433919,14.1281509 11.1744034,13.7711785 11.0815714,13.2584524 L11.0654762,13.077381 L11.0654762,6.03571429 C11.0654762,5.48014213 11.5158564,5.02976185 12.0714286,5.02976185 Z" transform="translate(.31 .31)"/>
</svg>
